<svg width="16" height="14" viewBox="0 0 16 14" fill="none" xmlns="http://www.w3.org/2000/svg">
<path d="M15.6649 7.66553L9.9504 13.3801C9.72896 13.6051 9.43609 13.7158 9.14322 13.7158C8.85034 13.7158 8.55819 13.6042 8.33532 13.381C7.88887 12.9345 7.88887 12.2113 8.33532 11.7648L12.1005 8.00126H1.14285C0.511752 8.00126 0 7.49052 0 6.85835C0 6.22618 0.511752 5.71544 1.14285 5.71544H12.1005L8.33604 1.95098C7.88959 1.50453 7.88959 0.781285 8.33604 0.334837C8.78248 -0.111612 9.50573 -0.111612 9.95218 0.334837L15.6667 6.04938C16.1114 6.49762 16.1114 7.21908 15.6649 7.66553Z" fill="#757679"/>
</svg>
