<svg width="12" height="11" viewBox="0 0 12 11" fill="none" xmlns="http://www.w3.org/2000/svg">
<path d="M4.61476 9.88829L2.40881 6.06911L0.200866 2.24893C0.0692357 2.02094 -4.21466e-05 1.76231 1.92366e-08 1.49905C4.2185e-05 1.23578 0.0694029 0.977175 0.201107 0.749226C0.33281 0.521278 0.522213 0.332027 0.750267 0.200506C0.978321 0.0689849 1.23699 -0.000168542 1.50025 3.0847e-07H10.321C10.7187 3.0847e-07 11.1 0.15796 11.3812 0.439131C11.6624 0.720301 11.8203 1.10165 11.8203 1.49929C11.8209 1.76147 11.752 2.01913 11.6204 2.24593L9.41647 6.06911L7.21152 9.88829C7.07993 10.1162 6.89067 10.3054 6.66275 10.437C6.43484 10.5686 6.17631 10.6379 5.91314 10.6379C5.64998 10.6379 5.39145 10.5686 5.16353 10.437C4.93562 10.3054 4.74636 10.1162 4.61476 9.88829Z" fill="var(--color-primary)"/>
</svg>
