<svg width="16" height="16" viewBox="0 0 16 16" fill="none" xmlns="http://www.w3.org/2000/svg">
<path d="M13.7143 0C14.975 0 16 1.02321 16 2.28571V13.7143C16 14.975 14.975 16 13.7143 16H2.28571C1.02321 16 0 14.975 0 13.7143V2.28571C0 1.02321 1.02321 0 2.28571 0H13.7143ZM12.1357 6.42143C12.525 6.03214 12.525 5.39643 12.1357 5.00714C11.7464 4.61786 11.1107 4.61786 10.7214 5.00714L6.85714 8.87143L5.27857 7.29286C4.88929 6.90357 4.25357 6.90357 3.86429 7.29286C3.47393 7.68214 3.47393 8.31786 3.86429 8.70714L6.15 10.9929C6.53929 11.3821 7.175 11.3821 7.56429 10.9929L12.1357 6.42143Z" fill="#1EC37F"/>
</svg>
