<svg width="24" height="24" viewBox="0 0 24 24" fill="none" xmlns="http://www.w3.org/2000/svg">
<path d="M6.65418 14.4393C6.93549 14.158 7.31702 14 7.71484 14C8.11267 14 8.4942 14.158 8.7755 14.4393C9.05681 14.7206 9.21484 15.1022 9.21484 15.5C9.21484 15.8978 9.05681 16.2794 8.7755 16.5607C8.4942 16.842 8.11267 17 7.71484 17C7.31702 17 6.93549 16.842 6.65418 16.5607C6.37288 16.2794 6.21484 15.8978 6.21484 15.5C6.21484 15.1022 6.37288 14.7206 6.65418 14.4393Z" fill="black"/>
<path fill-rule="evenodd" clip-rule="evenodd" d="M5 4C5 3.448 5.448 3 6 3H11C11.409 3 11.7757 3.24991 11.9277 3.62891L13.6777 8H16V5C16 3.90694 16.9069 3 18 3H19C19.5523 3 20 3.44772 20 4C20 4.55228 19.5523 5 19 5H18V8H21C21.552 8 22 8.448 22 9V10.8027C21.1175 10.2922 20.0929 10 19 10C15.6863 10 13 12.6863 13 16C13 16.3407 13 16.5 13 17C12.3425 19.3013 10.2203 21 7.71484 21C4.68912 21 2.21484 18.5257 2.21484 15.5C2.21484 13.3737 3.43833 11.5237 5.21484 10.6094L5 4ZM11.2148 15.5C11.2148 13.5552 9.65969 12 7.71484 12C5.77 12 4.21484 13.5552 4.21484 15.5C4.21484 17.4448 5.77 19 7.71484 19C9.65969 19 11.2148 17.4448 11.2148 15.5Z" fill="black"/>
<path d="M19 13V16M19 19V16M19 16H22M19 16H16" stroke="black" stroke-width="2" stroke-linecap="round"/>
</svg>
