<svg width="24" height="24" viewBox="0 0 24 24" fill="none" xmlns="http://www.w3.org/2000/svg">
<path d="M12 1C8.67619 1 6 3.67619 6 7V9.7207C4.75854 11.1302 4 12.9742 4 15C4 19.418 7.582 23 12 23C16.418 23 20 19.418 20 15C20 12.9742 19.2415 11.1302 18 9.7207V7C18 3.67619 15.3238 1 12 1ZM12 3C14.2762 3 16 4.72381 16 7V8.08008C14.8221 7.39748 13.4592 7 12 7C10.5408 7 9.17788 7.39748 8 8.08008V7C8 4.72381 9.72381 3 12 3ZM12.041 12.002C13.1221 12.0234 14 12.9132 14 14C14 14.735 13.594 15.3727 13 15.7207V18C13 18.552 12.552 19 12 19C11.448 19 11 18.552 11 18V15.7207C10.274 15.2957 9.8285 14.437 10.0625 13.498C10.2415 12.781 10.8434 12.2009 11.5664 12.0469C11.7272 12.0125 11.8866 11.9989 12.041 12.002Z" fill="white"/>
</svg>
