<svg width="24" height="24" viewBox="0 0 24 24" fill="none" xmlns="http://www.w3.org/2000/svg">
<path d="M8.25 22.5L8.25 5.11875L10.9397 7.80844C11.5256 8.39437 12.4748 8.39437 13.0608 7.80844C13.3547 7.51875 13.5 7.13437 13.5 6.75C13.5 6.36563 13.3535 5.98219 13.0605 5.68969L7.81055 0.439688C7.22461 -0.14625 6.27539 -0.14625 5.68945 0.439688L0.439453 5.68969C-0.146484 6.27563 -0.146484 7.22484 0.439453 7.81078C1.02539 8.39672 1.97461 8.39672 2.56055 7.81078L5.25 5.11875L5.25 22.5C5.25 23.3292 5.92078 24 6.75 24C7.57922 24 8.25 23.3292 8.25 22.5ZM15.75 1.5L15.75 18.8766L13.0603 16.1869C12.4744 15.6009 11.5252 15.6009 10.9392 16.1869C10.3533 16.7728 10.3533 17.722 10.9392 18.308L16.1892 23.558C16.7752 24.1439 17.7244 24.1439 18.3103 23.558L23.5603 18.308C23.8547 18.0188 24 17.6344 24 17.25C24 16.8656 23.8535 16.4822 23.5605 16.1897C22.9746 15.6038 22.0254 15.6038 21.4395 16.1897L18.75 18.8766V1.5C18.75 0.670782 18.0792 0 17.25 0C16.4208 0 15.75 0.670313 15.75 1.5Z" fill="var(--color-primary)"/>
</svg>
