<svg width="28" height="28" viewBox="0 0 28 28" fill="none" xmlns="http://www.w3.org/2000/svg">
<path d="M13.9996 1.86719C13.8846 1.86881 13.7709 1.89168 13.6642 1.93464C10.746 2.11851 8.39961 4.50445 8.39961 7.46719V10.5516C6.68484 12.0894 5.59961 14.3156 5.59961 16.8005C5.59961 21.4401 9.36001 25.2005 13.9996 25.2005C18.6392 25.2005 22.3996 21.4401 22.3996 16.8005C22.3996 12.1609 18.6392 8.40052 13.9996 8.40052C12.657 8.40052 11.3918 8.72285 10.2663 9.28281V7.46719C10.2663 5.39484 11.9273 3.73385 13.9996 3.73385C15.5865 3.73385 16.9292 4.71557 17.4741 6.09818C17.519 6.21228 17.5859 6.31642 17.671 6.40466C17.7561 6.49291 17.8578 6.56352 17.9702 6.61246C18.0826 6.6614 18.2035 6.68772 18.3261 6.68992C18.4487 6.69211 18.5705 6.67013 18.6846 6.62524C18.7987 6.58034 18.9028 6.51341 18.991 6.42827C19.0793 6.34313 19.1498 6.24144 19.1987 6.12902C19.2477 6.0166 19.2739 5.89564 19.2761 5.77305C19.2783 5.65047 19.2563 5.52866 19.2113 5.41458C18.4219 3.41119 16.4973 2.0085 14.2493 1.90547C14.1682 1.88145 14.0842 1.86857 13.9996 1.86719ZM13.9996 14.9339C15.0309 14.9339 15.8663 15.7692 15.8663 16.8005C15.8663 17.4893 15.4883 18.0845 14.9329 18.4083V19.6005C14.9329 20.1157 14.5148 20.5339 13.9996 20.5339C13.4844 20.5339 13.0663 20.1157 13.0663 19.6005V18.4083C12.5109 18.0854 12.1329 17.4903 12.1329 16.8005C12.1329 15.7692 12.9683 14.9339 13.9996 14.9339Z" fill="white"/>
</svg>
