<svg width="31" height="32" viewBox="0 0 31 32" fill="none" xmlns="http://www.w3.org/2000/svg">
<path d="M30.4054 15.8511C30.4054 7.45492 23.5989 0.648438 15.2027 0.648438C6.80648 0.648438 0 7.45492 0 15.8511C0 24.2474 6.80648 31.0538 15.2027 31.0538C23.5989 31.0538 30.4054 24.2474 30.4054 15.8511Z" fill="#5C0FAE"/>
<path d="M21.8922 13.6336C21.8922 14.4065 21.6987 15.1311 21.3116 15.8073C20.9389 16.4836 20.3439 17.0287 19.5267 17.4427C18.7239 17.8568 17.706 18.0638 16.473 18.0638H13.957V23.6118H10.9463V9.16211H16.473C17.6343 9.16211 18.6235 9.35532 19.4407 9.74175C20.2579 10.1282 20.8672 10.6595 21.2686 11.3358C21.6844 12.012 21.8922 12.778 21.8922 13.6336ZM16.344 15.7245C17.1755 15.7245 17.792 15.5451 18.1934 15.1863C18.5948 14.8136 18.7955 14.2961 18.7955 13.6336C18.7955 12.2259 17.9784 11.5221 16.344 11.5221H13.957V15.7245H16.344Z" fill="white"/>
<path d="M17.1253 23.7567C16.5805 23.7567 16.1289 23.598 15.7705 23.2806C15.4264 22.9493 15.2544 22.5422 15.2544 22.0592C15.2544 21.5761 15.4264 21.1759 15.7705 20.8585C16.1289 20.5273 16.5805 20.3616 17.1253 20.3616C17.6558 20.3616 18.093 20.5273 18.4371 20.8585C18.7812 21.1759 18.9532 21.5761 18.9532 22.0592C18.9532 22.5422 18.7812 22.9493 18.4371 23.2806C18.093 23.598 17.6558 23.7567 17.1253 23.7567Z" fill="white"/>
</svg>
