<?xml version="1.0" encoding="UTF-8"?><svg xmlns="http://www.w3.org/2000/svg" xmlns:xlink="http://www.w3.org/1999/xlink" viewBox="0 0 158.75 158.66"><defs><style>.g{fill:url(#f);}</style><linearGradient id="f" x1="0" y1="79.33" x2="158.75" y2="79.33" gradientTransform="matrix(1, 0, 0, 1, 0, 0)" gradientUnits="userSpaceOnUse"><stop offset="0" stop-color="#31a55e"/><stop offset=".67" stop-color="#303567"/><stop offset="1" stop-color="#30046c"/></linearGradient></defs><g id="a"/><g id="b"><g id="c"><g id="d"><g id="e"><path class="g" d="M57.87,148.69h0c13.3,13.3,34.8,13.3,48.1,0l42.8-42.8c13.3-13.3,13.3-34.8,0-48.1h0c-12.6-12.6-32.6-13.2-45.9-2,11.3-13.4,10.6-33.3-2-45.9h0c-13.2-13.2-34.7-13.2-48,.1L9.98,52.79c-13.3,13.3-13.3,34.8,0,48.1h0c12.6,12.6,32.6,13.2,45.9,2-11.2,13.2-10.6,33.2,2,45.8h0Zm-7.5-100.6h0c0-21.8,26.4-32.7,41.8-17.3h0c9.6,9.6,9.6,25.1,0,34.6h0c-15.4,15.4-41.8,4.5-41.8-17.3h0Zm11,67.8c-4.7-4.7-4.7-12.3,0-17h0c7.6-7.6,20.5-2.2,20.5,8.5h0c0,10.7-12.9,16.1-20.5,8.5h0Z"/></g></g></g></g></svg>