<svg width="60" height="60" viewBox="0 0 60 60" fill="none" xmlns="http://www.w3.org/2000/svg">
<path d="M59.324 0.00177223H49.4172C48.436 -0.0262375 47.4754 0.278506 46.7005 0.863611C45.9257 1.44871 45.385 2.27762 45.1714 3.20783L36.3654 33.589H35.4219L25.0434 3.05516C24.7457 2.19594 24.1735 1.45134 23.4099 0.929645C22.6463 0.407952 21.7311 0.136385 20.7976 0.154442H9.47557C9.00382 0.00177281 8.68932 0.45978 8.84657 0.917788L23.4709 41.5278C23.5955 41.9819 23.8903 42.3745 24.2976 42.6287C24.7048 42.8828 25.1951 42.9802 25.6724 42.9018H33.0631C30.0754 52.8253 14.3503 47.9399 10.4191 46.8712C9.79007 46.7185 9.16107 47.4819 9.31832 48.0926L12.7778 57.8634C12.8247 58.0746 12.9431 58.2646 13.1141 58.4029C13.2851 58.5413 13.4989 58.6201 13.7213 58.6267C18.8273 60.0657 24.1999 60.3787 29.4464 59.5428C39.1959 57.5581 43.1272 48.8559 44.5424 45.4972C46.4294 41.2224 58.3805 5.49786 59.953 0.917788C59.9932 0.81714 60.008 0.70856 59.9959 0.601224C59.9838 0.493887 59.9453 0.390949 59.8836 0.30111C59.8219 0.21127 59.7389 0.137168 59.6415 0.0850666C59.5441 0.0329654 59.4352 0.00439559 59.324 0.00177223Z" fill="white"/>
<path d="M20.1686 41.68L16.0801 30.6879C15.9034 30.1819 15.5629 29.7451 15.1095 29.4424C14.656 29.1397 14.1139 28.9875 13.5641 29.0085H3.50008C2.93778 29.0161 2.38539 29.1533 1.88842 29.4088C1.39145 29.6643 0.964115 30.0308 0.641629 30.478C0.319143 30.9253 0.110734 31.4406 0.0335728 31.9814C-0.0435887 32.5222 0.0127058 33.073 0.197818 33.5886C1.14132 36.184 1.61307 37.558 2.55658 40.0007C2.84701 40.8343 3.39572 41.5605 4.1276 42.0798C4.85947 42.599 5.73875 42.886 6.64509 42.9014H19.3824C19.5323 42.9056 19.6807 42.8716 19.8129 42.8028C19.9451 42.7341 20.0565 42.6329 20.136 42.5094C20.2155 42.386 20.2603 42.2445 20.266 42.099C20.2718 41.9535 20.2382 41.809 20.1686 41.68Z" fill="white"/>
</svg>