<svg xmlns="http://www.w3.org/2000/svg" xmlns:xlink="http://www.w3.org/1999/xlink" id="Layer_1" x="0px" y="0px" style="enable-background:new 0 0 102.4 102.4" version="1.1" viewBox="0 0 102.4 102.4" xml:space="preserve"><defs/><style type="text/css">.st0{fill:#143A3A;} .st1{fill:#FFFFFF;} .st2{clip-path:url(#SVGID_00000155840855228615195410000003792094903596564111_);} .st3{fill:#FFFFFF;stroke:#FFFFFF;stroke-width:1.2996;stroke-linecap:round;stroke-linejoin:round;}</style><circle cx="51.2" cy="51.2" r="51.2" class="st0"/><path d="M57.8 31.4c-1.2 3.5-9.9 30.5-11.3 33.7-1 2.5-3.9 9.1-11.1 10.6-1.3.3-2.7.4-4.1.4-2.5 0-5.1-.4-7.5-1.1-.3 0-.6-.2-.7-.6L20.6 67c-.1-.4.2-.9.6-.9h.1c2.9.9 5.9 1.5 9 1.6 3.4 0 6.6-1 7.6-4.6h-5.4c-.7.1-1.4-.3-1.6-1L20.2 31.4c-.1-.2 0-.5.3-.5H29c1.4 0 2.7.9 3.1 2.2l7.6 23.1h.7l6.5-23c.3-1.4 1.6-2.5 3.1-2.4h7.3c.3 0 .5.2.5.5v.1z" class="st1"/><defs><path id="SVGID_1_" d="M97.7 11.6v77.6H37.3v-9.9c5.7-1.6 10-5.9 12.8-12.7 1.1-2.5 5.4-15.7 10-29.6.7-2.1 8.1-24.3 8.5-25.4h29.1z"/></defs><clipPath id="SVGID_00000183211537391130593380000015804576307455567769_"><use style="overflow:visible" xlink:href="#SVGID_1_"/></clipPath><path d="M64 31.5h12.2c4.7 0 8.1 1.1 10.2 3.4 2.1 2.3 2.9 5.5 2.3 9.8-.4 3.3-1.3 6.5-2.6 9.5-1.2 2.7-2.8 5.1-4.8 7.1s-4.3 3.5-6.9 4.5c-2.8 1.1-5.8 1.6-8.8 1.5H52l12-35.8zm2.6 29.8c2.3.1 4.6-.6 6.5-2 1.9-1.6 3.3-3.8 3.9-6.1l2.1-6.5c.2-.6.4-1.2.5-1.8s.3-1.2.3-1.6c.5-3.8-1.3-5.8-5.5-5.8h-3.9l-7.9 23.8h4z" class="st3"/><path d="M28.6 62.2l-3-8.3c-.3-.8-1-1.3-1.8-1.3h-7.4c-1.4 0-2.6 1.2-2.6 2.6 0 .3.1.6.1.8.7 2 1 3 1.7 4.9.4 1.3 1.6 2.2 3 2.2H28c.3 0 .6-.3.6-.6v-.3z" class="st1"/></svg>