<?xml version="1.0" encoding="utf-8"?>
<!-- Generator: Adobe Illustrator 25.2.1, SVG Export Plug-In . SVG Version: 6.00 Build 0)  -->
<svg version="1.1" id="Layer_1" xmlns="http://www.w3.org/2000/svg" xmlns:xlink="http://www.w3.org/1999/xlink" x="0px" y="0px"
	 viewBox="0 0 48 48" style="enable-background:new 0 0 48 48;" xml:space="preserve">
<style type="text/css">
	.st0{fill:#143A3A;}
</style>
<g>
	<path class="st0" d="M43,4.4h-6.4c-1.3,0-2.4,0.8-2.7,2.1l-5.7,20.2h-0.6L20.8,6.5c-0.4-1.2-1.5-1.9-2.7-1.9h-7.3
		c-0.3-0.1-0.5,0.2-0.4,0.5l9.5,27.1c0.3,0.7,0.6,0.9,1.4,0.9H26c-1.9,6.6-12.1,3.4-14.6,2.6c-0.4-0.1-0.8,0.4-0.7,0.8l2.2,6.5
		c0.1,0.3,0.3,0.5,0.6,0.5c1.2,0.3,5.5,1.5,10.2,0.6c6.3-1.3,8.8-7.1,9.8-9.4c1.2-2.8,9-26.6,10-29.7C43.5,4.7,43.3,4.4,43,4.4z"/>
	<path class="st0" d="M17.6,32.2L15,24.9c-0.2-0.7-0.9-1.1-1.6-1.1H6.9c-1.5,0-2.6,1.5-2.1,3.1c0.6,1.7,0.9,2.6,1.5,4.3
		C6.7,32.2,7.7,33,8.9,33h8.2C17.5,33,17.8,32.6,17.6,32.2z"/>
</g>
</svg>
