<svg width="29" height="38" viewBox="0 0 29 38" fill="none" xmlns="http://www.w3.org/2000/svg">
<path fill-rule="evenodd" clip-rule="evenodd" d="M20.4561 35.3105L16.5251 23.9426H6.45642L8.05842 36.3238C8.08542 36.5331 8.13994 36.735 8.2188 36.9256C9.43608 37.1704 10.6955 37.2988 11.9848 37.2988C15.0288 37.2988 17.9056 36.583 20.4561 35.3105Z" fill="#FEA5A3"/>
<path d="M4.77153 13.1704C4.77153 13.1704 2.10107 24.4365 3.81902 28.2567C5.5369 32.0767 11.9755 30.0882 16.8148 25.356L17.9979 13.6356L4.77153 13.1704Z" fill="url(#paint0_linear_2811_7797)"/>
<path d="M15.1967 20.174C14.9389 20.1316 14.7796 19.8712 14.863 19.6235C15.1158 18.8704 15.5623 17.3517 15.5137 16.137C15.5137 16.137 16.3004 15.285 12.7416 15.3586C9.1826 15.4323 3.86248 15.4931 2.0677 12.9166C0.317874 10.4045 1.18031 2.71114 6.92682 7.15988C7.14546 7.32892 7.46655 7.25015 7.57391 6.99562C8.03821 5.89582 9.39082 3.51252 12.2594 3.99386C14.9436 4.44389 15.6745 6.13364 15.8733 7.02993C15.9319 7.29341 16.2185 7.43533 16.4621 7.31935C17.6164 6.77008 20.4794 5.80934 22.6215 8.44445C24.3857 10.6147 24.0218 12.1993 23.5365 13.0545C23.3795 13.3317 23.5688 13.6708 23.887 13.6841C24.749 13.7197 25.9571 14.1273 26.3425 16.0247C26.8756 18.6479 23.9251 19.1755 23.0709 19.2729C22.9311 19.2886 22.8074 19.3708 22.7423 19.4954C22.2408 20.461 19.9274 24.6082 16.5904 25.9075C16.3013 26.0199 15.9935 25.7859 16.017 25.4767L16.375 20.7578C16.3918 20.5387 16.2379 20.3434 16.0209 20.3079L15.1967 20.174Z" fill="#191B1F"/>
<defs>
<linearGradient id="paint0_linear_2811_7797" x1="-255.797" y1="169.407" x2="-232.735" y2="156.455" gradientUnits="userSpaceOnUse">
<stop stop-color="#FF928E"/>
<stop offset="1" stop-color="#FEB3B1"/>
</linearGradient>
</defs>
</svg>
