<svg width="29" height="38" viewBox="0 0 29 38" fill="none" xmlns="http://www.w3.org/2000/svg">
<path fill-rule="evenodd" clip-rule="evenodd" d="M20.4561 35.3115L16.5251 23.9436H6.45642L8.05842 36.3248C8.08542 36.5341 8.13994 36.736 8.2188 36.9266C9.43608 37.1714 10.6955 37.2998 11.9848 37.2998C15.0288 37.2998 17.9056 36.584 20.4561 35.3115Z" fill="#FEA5A3"/>
<path d="M4.77153 13.1714C4.77153 13.1714 2.10107 24.4374 3.81902 28.2577C5.5369 32.0777 11.9755 30.0892 16.8148 25.357L17.9979 13.6366L4.77153 13.1714Z" fill="url(#paint0_linear_2811_7819)"/>
<path d="M15.1967 20.175C14.9389 20.1326 14.7796 19.8721 14.863 19.6245C15.1158 18.8714 15.5623 17.3527 15.5137 16.138C15.5137 16.138 16.3004 15.286 12.7416 15.3596C9.1826 15.4333 3.86248 15.494 2.0677 12.9175C0.317874 10.4055 1.18031 2.71212 6.92682 7.16085C7.14546 7.32989 7.46655 7.25113 7.57391 6.9966C8.03821 5.89679 9.39082 3.51349 12.2594 3.99484C14.9436 4.44486 15.6745 6.13462 15.8733 7.0309C15.9319 7.29438 16.2185 7.43631 16.4621 7.32033C17.6164 6.77106 20.4794 5.81032 22.6215 8.44542C24.3857 10.6157 24.0218 12.2002 23.5365 13.0555C23.3795 13.3327 23.5688 13.6717 23.887 13.685C24.749 13.7207 25.9571 14.1283 26.3425 16.0257C26.8756 18.6488 23.9251 19.1765 23.0709 19.2739C22.9311 19.2896 22.8074 19.3718 22.7423 19.4964C22.2408 20.462 19.9274 24.6092 16.5904 25.9084C16.3013 26.0208 15.9935 25.7868 16.017 25.4777L16.375 20.7588C16.3918 20.5397 16.2379 20.3443 16.0209 20.3088L15.1967 20.175Z" fill="#193670"/>
<defs>
<linearGradient id="paint0_linear_2811_7819" x1="-255.797" y1="169.408" x2="-232.735" y2="156.456" gradientUnits="userSpaceOnUse">
<stop stop-color="#FF928E"/>
<stop offset="1" stop-color="#FEB3B1"/>
</linearGradient>
</defs>
</svg>
