<svg width="166" height="220" viewBox="0 0 166 220" fill="none" xmlns="http://www.w3.org/2000/svg">
<mask id="mask0" mask-type="alpha" maskUnits="userSpaceOnUse" x="0" y="0" width="166" height="220">
<rect width="166" height="220" fill="white"/>
</mask>
<g mask="url(#mask0)">
<path opacity="0.06" d="M0 124.055C15.1422 127.202 61.699 130.154 92.8874 101.835C137.537 61.2929 199.335 56.6597 259 97.1154" stroke="#191B1F"/>
<circle cx="79" cy="17" r="2" fill="#FF3D77"/>
<circle cx="133" cy="41" r="2" fill="var(--color-primary)"/>
<circle cx="102" cy="94" r="2" fill="var(--color-primary)"/>
<circle cx="47.5" cy="122.5" r="3.5" fill="#1EC37F"/>
<path d="M99.1574 87.4067C99.1412 87.4566 98.7905 87.3871 98.3741 87.2523C97.9577 87.1171 97.6328 86.9674 97.649 86.9179C97.6652 86.8684 98.0159 86.9374 98.4323 87.0726C98.8488 87.2074 99.1737 87.3572 99.1574 87.4067Z" fill="#ECECEC"/>
<path d="M98.6287 88.3505C98.6208 88.4021 98.4078 88.4042 98.152 88.3551C97.8966 88.3064 97.6994 88.2253 97.7115 88.1746C97.7235 88.1238 97.9365 88.1213 98.1878 88.1696C98.439 88.2178 98.6362 88.2985 98.6287 88.3505Z" fill="#ECECEC"/>
<path d="M8.9142 192.018C5.11921 189.838 0.651333 189.555 -3.56127 190.33C-5.82464 190.746 -8.18404 191.501 -9.72434 193.393C-11.264 195.287 -11.5559 198.619 -9.78754 200.246C-8.73486 201.214 -7.26705 201.361 -5.90209 201.343C-2.604 201.3 1.05531 200.654 3.68981 202.863C5.19294 204.124 6.19358 206.22 7.99101 206.84C9.74879 207.446 11.7333 206.291 12.6658 204.524C13.5977 202.756 13.6287 200.547 13.1943 198.556C13.1943 198.556 12.7365 194.215 8.9142 192.018Z" fill="#1EC37F"/>
<path d="M17.6079 173.329C15.2875 177.02 10.7781 175.798 8.68699 173.545C6.59587 171.293 5.71172 168.027 4.90749 164.914C3.06916 157.8 1.21596 150.338 2.58278 143.094C2.99171 140.928 3.71849 138.768 5.08531 137.162C6.45213 135.555 8.55316 134.599 10.4745 135.163C12.7484 135.833 14.1617 138.313 15.1828 140.672C18.1853 147.608 19.7752 155.296 19.7987 162.995C19.8099 166.589 19.4288 170.36 17.6079 173.329Z" fill="#1EC37F"/>
<path d="M23.9795 178.624C21.4602 175.295 20.9825 170.438 22.1033 166.267C23.2242 162.095 25.7571 158.546 28.6753 155.649C32.098 152.252 36.1204 149.61 40.4451 147.916C42.1465 147.25 43.9421 146.724 45.7376 146.915C47.5338 147.106 49.3424 148.128 50.1795 149.908C51.4181 152.538 50.2309 155.729 48.9459 158.333C46.6838 162.918 44.0963 167.307 41.2159 171.442C38.8992 174.768 36.2449 178.049 32.7138 179.553C29.1828 181.056 25.5148 180.88 23.643 178.152" fill="#1EC37F"/>
<path d="M17.7651 229C17.7217 229.003 17.6511 228.405 17.5551 227.323C17.4485 226.103 17.3147 224.57 17.1554 222.747C16.964 220.821 16.7112 218.529 16.2304 216.034C15.7521 213.545 15.0023 210.846 14.0395 208.111C13.0432 205.391 11.8276 202.919 10.4068 200.942C8.99603 198.956 7.35597 197.519 5.81381 196.689C4.2766 195.844 2.89863 195.5 1.9457 195.348C0.984714 195.238 0.446909 195.153 0.446289 195.107C0.446289 195.059 0.985333 195.051 1.97234 195.08C2.95006 195.153 4.38565 195.429 6.00588 196.249C7.63045 197.052 9.37088 198.511 10.8505 200.538C12.3424 202.557 13.6021 205.083 14.6163 207.852C15.5959 210.636 16.3339 213.361 16.7917 215.904C17.2477 218.443 17.4566 220.761 17.5929 222.702C17.7236 224.645 17.7732 226.219 17.7967 227.307C17.8184 228.395 17.8072 228.997 17.7651 229Z" fill="#191B1F"/>
<path d="M17.4812 225.479C17.4595 225.478 17.4465 225.21 17.4409 224.7C17.4421 224.116 17.4434 223.38 17.4458 222.475C17.4508 220.545 17.4502 217.75 17.3572 214.299C17.2036 207.397 16.6701 199.969 15.6391 189.498C14.6633 179.65 13.3534 168.191 11.9711 160.74C11.6744 159.046 11.3757 157.521 11.0944 156.186C10.8268 154.848 10.5981 153.693 10.3769 152.76C10.1873 151.881 10.0331 151.165 9.91038 150.597C9.81001 150.1 9.76725 149.835 9.7877 149.829C9.80877 149.823 9.89117 150.074 10.0306 150.559C10.183 151.118 10.3751 151.825 10.6111 152.691C10.8683 153.616 11.1316 154.763 11.4327 156.095C11.7468 157.425 12.0759 158.946 12.4005 160.638C13.7686 167.39 15.2166 176.825 16.2575 187.322C17.2903 197.816 17.755 207.371 17.7965 214.29C17.8331 217.749 17.7674 220.549 17.6875 222.482C17.6379 223.386 17.5976 224.122 17.5661 224.706C17.5314 225.214 17.5029 225.48 17.4812 225.479Z" fill="#191B1F"/>
<path d="M17.4405 207.05C17.3972 207.048 17.4046 206.222 17.4548 204.725C17.5316 203.231 17.7163 201.072 18.0942 198.428C18.4951 195.79 19.0546 192.657 19.9332 189.252C20.3142 187.696 21.2095 183.967 23.3787 178.395C26.2369 170.846 30.1192 164.673 33.4966 160.85C34.2891 159.835 35.1714 159.103 35.8771 158.386C36.2427 158.043 36.5648 157.7 36.8938 157.428C37.2247 157.174 37.532 156.938 37.817 156.719C38.9292 155.872 39.5519 155.426 39.5748 155.465C39.6746 155.617 37.0847 157.314 33.8145 161.188C30.5579 165.054 26.784 171.184 23.9493 178.67C22.3688 182.731 21.2665 186.353 20.4846 189.427C19.5806 192.799 18.9808 195.899 18.5273 198.512C18.0967 201.13 17.847 203.267 17.6964 204.747C17.5725 206.23 17.4833 207.052 17.4405 207.05Z" fill="#191B1F"/>
<path d="M102.955 165.858L110.25 166.15L110.321 163.709L110.481 158.082L111.142 135.093L103.845 134.798L103.185 157.789L103.025 163.416L102.955 165.858Z" fill="#16CFE7"/>
<path d="M66.8129 156.583L80.9206 150.549L87.4756 147.746L92.1559 145.745L98.103 143.2L104.65 140.397L114.726 136.087L114.784 134.794L105.11 129.995L98.821 126.875L93.1164 124.044L88.6179 121.813L82.331 118.696L68.7873 111.981L68.7821 112.125L66.8218 156.437L66.8129 156.583Z" fill="#FFCF36"/>
<path d="M64.0581 133.702C63.6369 145.955 65.1664 155.95 67.4769 156.03C69.241 156.091 70.9493 150.352 71.8476 142.18C71.9013 141.69 71.9517 141.193 71.9986 140.685C72.2005 138.575 72.3448 136.326 72.4247 133.99C72.5128 131.436 72.5158 128.983 72.4431 126.693C72.4354 126.486 72.4311 126.283 72.4231 126.079C72.1087 117.71 70.7883 111.723 69.0026 111.662C66.6923 111.582 64.4791 121.453 64.0581 133.702Z" fill="#EBEBEB"/>
<path d="M65.2673 133.805C65.2391 138.813 67.9786 143.052 71.3821 143.272C71.6462 143.29 71.9069 143.282 72.1595 143.249C72.2013 142.703 72.2395 142.149 72.2737 141.582C72.4229 139.23 72.5069 136.72 72.5216 134.111C72.5375 131.259 72.4673 128.517 72.3228 125.956C72.3079 125.724 72.2979 125.497 72.2834 125.269C72.0235 125.198 71.7557 125.157 71.4838 125.139C68.0807 124.918 65.2951 128.798 65.2673 133.805Z" fill="#FF7A7A"/>
<path d="M110.267 140.702L103.315 140.789L104.166 130.916L111.117 130.829C113.935 130.793 116.04 132.835 115.82 135.389L115.766 136.014C115.546 138.568 113.084 140.667 110.267 140.702Z" fill="#FFCF36"/>
<path d="M99.1128 142.883L105.207 140.25L105.353 129.82L99.3378 126.513L99.1119 142.832C99.1103 142.848 99.1109 142.868 99.1128 142.883Z" fill="#FFDF79"/>
<path d="M80.9917 151.119L87.5494 148.305L88.358 121.475L81.9918 118.166L80.9917 151.119Z" fill="#FFDF79"/>
<path d="M103.192 163.225L110.011 163.736L109.991 158.114L103.172 157.603L103.192 163.225Z" fill="#1E1466"/>
<path d="M192.236 157.57L171.775 151.007L147.288 150.916C147.288 150.916 128.39 156.809 126.097 158.027L125.041 208.958L124.221 238L190.961 237.643V202.467L192.236 157.57Z" fill="#341F97"/>
<path d="M126.097 158.027C126.097 158.027 118.471 164.301 114.501 174.799C111.78 181.994 105.592 197.958 105.592 197.958L124.979 204.832L129.364 173.874L126.097 158.027Z" fill="#341F97"/>
<path d="M125.042 170.622C125.1 170.622 125.146 179.205 125.146 189.789C125.146 200.377 125.1 208.958 125.042 208.958C124.984 208.958 124.937 200.377 124.937 189.789C124.937 179.205 124.984 170.622 125.042 170.622Z" fill="#191B1F"/>
<path d="M124.08 172.459C124.073 172.482 123.677 172.382 123.081 172.108C122.484 171.835 121.696 171.364 120.946 170.692C120.199 170.018 119.646 169.285 119.312 168.721C118.975 168.156 118.834 167.774 118.856 167.764C118.916 167.725 119.604 169.22 121.086 170.537C122.553 171.87 124.113 172.395 124.08 172.459Z" fill="white"/>
<path d="M190.042 174.159C190.044 174.162 189.993 174.19 189.893 174.241C189.783 174.296 189.634 174.369 189.445 174.464C189.039 174.66 188.456 174.941 187.712 175.301C187.334 175.482 186.915 175.683 186.458 175.902C185.993 176.109 185.476 176.304 184.926 176.529C183.821 176.962 182.585 177.517 181.154 177.953C180.444 178.189 179.701 178.436 178.927 178.693C178.15 178.946 177.322 179.135 176.475 179.371C176.051 179.484 175.618 179.599 175.179 179.716C174.96 179.773 174.74 179.838 174.515 179.889C174.289 179.934 174.061 179.981 173.832 180.028C172.914 180.216 171.97 180.409 171.001 180.607C167.106 181.28 162.772 181.738 158.206 181.762C153.637 181.737 149.302 181.276 145.406 180.602C144.438 180.404 143.493 180.21 142.576 180.023C142.346 179.975 142.119 179.929 141.893 179.883C141.668 179.832 141.448 179.766 141.228 179.71C140.789 179.592 140.357 179.477 139.932 179.364C139.086 179.128 138.257 178.938 137.481 178.686C136.707 178.429 135.964 178.181 135.254 177.945C133.823 177.508 132.587 176.953 131.482 176.519C130.933 176.294 130.415 176.098 129.951 175.892C129.494 175.673 129.075 175.472 128.697 175.291C127.953 174.931 127.371 174.649 126.965 174.453C126.775 174.359 126.627 174.285 126.517 174.23C126.417 174.179 126.366 174.151 126.368 174.148C126.37 174.145 126.423 174.166 126.527 174.211C126.639 174.261 126.79 174.329 126.984 174.415C127.393 174.603 127.98 174.872 128.731 175.217C129.111 175.393 129.532 175.587 129.992 175.8C130.457 176.001 130.976 176.191 131.526 176.411C132.634 176.833 133.871 177.378 135.302 177.805C136.011 178.036 136.754 178.279 137.528 178.531C138.303 178.779 139.132 178.964 139.977 179.196C140.401 179.307 140.832 179.42 141.271 179.536C141.49 179.591 141.709 179.656 141.934 179.705C142.16 179.751 142.387 179.796 142.616 179.842C143.532 180.027 144.474 180.217 145.441 180.412C149.328 181.074 153.651 181.527 158.206 181.552C162.758 181.529 167.081 181.077 170.967 180.416C171.934 180.222 172.876 180.032 173.792 179.848C174.021 179.802 174.248 179.756 174.474 179.711C174.698 179.661 174.917 179.597 175.137 179.541C175.576 179.427 176.007 179.313 176.431 179.203C177.276 178.971 178.105 178.786 178.88 178.539C179.654 178.286 180.397 178.044 181.106 177.813C182.537 177.387 183.774 176.842 184.882 176.421C185.433 176.201 185.951 176.011 186.417 175.81C186.877 175.597 187.298 175.403 187.678 175.227C188.429 174.883 189.016 174.613 189.426 174.426C189.619 174.34 189.771 174.272 189.883 174.222C189.986 174.177 190.04 174.156 190.042 174.159Z" fill="white"/>
<path d="M124.716 177.008C124.713 177.022 124.58 176.998 124.343 176.942C124.105 176.889 123.766 176.787 123.356 176.638C122.535 176.343 121.436 175.813 120.359 175.019C119.284 174.223 118.455 173.328 117.932 172.63C117.669 172.281 117.472 171.987 117.351 171.776C117.228 171.565 117.166 171.445 117.178 171.438C117.209 171.418 117.499 171.871 118.048 172.538C118.595 173.205 119.427 174.067 120.484 174.851C121.543 175.631 122.612 176.173 123.41 176.5C124.208 176.829 124.726 176.973 124.716 177.008Z" fill="white"/>
<path d="M188.887 181.156C188.889 181.159 188.839 181.185 188.739 181.234C188.629 181.286 188.481 181.356 188.292 181.446C187.889 181.632 187.309 181.899 186.568 182.241C186.192 182.413 185.775 182.604 185.32 182.812C184.858 183.007 184.343 183.189 183.797 183.4C182.698 183.805 181.467 184.33 180.045 184.727C179.34 184.944 178.601 185.171 177.832 185.408C177.06 185.639 176.238 185.805 175.397 186.017C174.975 186.118 174.546 186.222 174.11 186.326C173.892 186.377 173.673 186.436 173.45 186.48C173.226 186.52 173 186.56 172.773 186.6C171.862 186.761 170.926 186.927 169.965 187.097C166.104 187.654 161.814 187.979 157.309 187.853C152.805 187.679 148.545 187.068 144.729 186.254C143.782 186.021 142.858 185.793 141.961 185.571C141.736 185.516 141.514 185.461 141.293 185.407C141.073 185.348 140.859 185.274 140.644 185.209C140.217 185.076 139.795 184.944 139.381 184.815C138.556 184.547 137.746 184.327 136.992 184.045C136.24 183.757 135.518 183.481 134.829 183.218C133.436 182.726 132.244 182.12 131.174 181.644C130.643 181.396 130.141 181.181 129.694 180.955C129.253 180.717 128.85 180.499 128.486 180.302C127.77 179.912 127.21 179.607 126.819 179.394C126.637 179.292 126.494 179.212 126.388 179.153C126.292 179.098 126.243 179.068 126.245 179.065C126.247 179.062 126.299 179.085 126.399 179.134C126.507 179.189 126.653 179.263 126.84 179.357C127.235 179.562 127.8 179.855 128.524 180.23C128.89 180.422 129.295 180.634 129.738 180.865C130.188 181.085 130.691 181.295 131.223 181.537C132.296 182.003 133.49 182.598 134.883 183.08C135.572 183.339 136.294 183.61 137.045 183.892C137.799 184.169 138.608 184.385 139.432 184.649C139.846 184.776 140.267 184.906 140.694 185.037C140.908 185.101 141.121 185.173 141.341 185.231C141.562 185.285 141.784 185.339 142.008 185.393C142.904 185.611 143.826 185.835 144.771 186.065C148.578 186.867 152.826 187.47 157.316 187.644C161.807 187.769 166.085 187.451 169.936 186.905C170.895 186.739 171.829 186.577 172.737 186.419C172.965 186.38 173.19 186.34 173.413 186.302C173.637 186.259 173.855 186.2 174.072 186.151C174.507 186.048 174.935 185.947 175.357 185.847C176.196 185.64 177.018 185.478 177.788 185.252C178.557 185.02 179.296 184.798 180 184.586C181.422 184.198 182.654 183.684 183.755 183.291C184.302 183.085 184.818 182.909 185.282 182.719C185.739 182.518 186.158 182.333 186.536 182.166C187.283 181.84 187.867 181.585 188.275 181.407C188.467 181.326 188.618 181.262 188.729 181.214C188.832 181.172 188.886 181.152 188.887 181.156Z" fill="white"/>
<path d="M154.664 214.423C154.664 214.43 154.563 214.441 154.369 214.456C154.155 214.469 153.874 214.486 153.523 214.508C153.155 214.533 152.704 214.55 152.181 214.56C151.658 214.574 151.062 214.589 150.403 214.582C149.085 214.592 147.516 214.533 145.777 214.442C144.038 214.331 142.128 214.164 140.132 213.921C138.136 213.669 136.244 213.364 134.53 213.046C132.82 212.71 131.285 212.384 130.009 212.051C129.369 211.897 128.794 211.737 128.291 211.595C127.786 211.458 127.353 211.331 127.003 211.218C126.667 211.111 126.399 211.024 126.195 210.959C126.01 210.898 125.915 210.863 125.917 210.856C125.919 210.849 126.019 210.871 126.207 210.919C126.414 210.974 126.686 211.048 127.025 211.14C127.379 211.241 127.814 211.355 128.321 211.482C128.827 211.612 129.403 211.762 130.044 211.907C131.322 212.22 132.858 212.531 134.566 212.856C136.277 213.162 138.166 213.461 140.158 213.713C142.15 213.955 144.054 214.127 145.789 214.248C147.524 214.351 149.089 214.425 150.404 214.433C151.062 214.45 151.657 214.446 152.179 214.442C152.702 214.444 153.152 214.439 153.52 214.427C153.871 214.421 154.153 214.417 154.367 214.413C154.561 214.413 154.663 214.415 154.664 214.423Z" fill="white"/>
<path d="M149.567 218.955C149.567 218.962 149.481 218.97 149.316 218.978C149.128 218.984 148.889 218.993 148.593 219.003C148.279 219.015 147.895 219.019 147.449 219.011C147.003 219.008 146.495 219.005 145.933 218.977C144.81 218.945 143.477 218.842 141.998 218.704C140.521 218.551 138.901 218.345 137.208 218.083C133.822 217.55 130.785 216.917 128.594 216.432C127.498 216.191 126.614 215.985 126.004 215.838C125.717 215.766 125.485 215.708 125.303 215.663C125.143 215.621 125.06 215.595 125.062 215.588C125.063 215.581 125.149 215.592 125.313 215.622C125.497 215.657 125.731 215.702 126.022 215.758C126.663 215.888 127.545 216.068 128.625 216.287C130.823 216.734 133.861 217.344 137.241 217.876C138.931 218.138 140.546 218.348 142.018 218.511C143.491 218.66 144.821 218.778 145.94 218.829C146.499 218.866 147.006 218.879 147.451 218.894C147.896 218.913 148.279 218.921 148.592 218.921C148.888 218.927 149.127 218.932 149.315 218.935C149.48 218.941 149.567 218.947 149.567 218.955Z" fill="white"/>
<path d="M190.962 210.009C190.962 210.012 190.933 210.022 190.873 210.038C190.802 210.057 190.716 210.078 190.611 210.105C190.362 210.163 190.024 210.242 189.598 210.342C188.717 210.546 187.436 210.815 185.85 211.122C182.676 211.738 178.263 212.455 173.355 212.965C168.445 213.471 163.978 213.672 160.745 213.718C159.129 213.742 157.821 213.741 156.917 213.721C156.479 213.711 156.132 213.703 155.876 213.697C155.768 213.692 155.679 213.688 155.606 213.685C155.545 213.681 155.514 213.677 155.514 213.674C155.514 213.67 155.545 213.667 155.606 213.664C155.68 213.661 155.768 213.658 155.877 213.655C156.132 213.651 156.48 213.646 156.917 213.64C157.821 213.635 159.127 213.613 160.742 213.57C163.97 213.485 168.429 213.261 173.333 212.756C178.235 212.248 182.645 211.555 185.822 210.976C187.411 210.688 188.695 210.442 189.581 210.262C190.01 210.179 190.35 210.113 190.602 210.064C190.709 210.045 190.796 210.03 190.869 210.017C190.929 210.008 190.961 210.005 190.962 210.009Z" fill="white"/>
<path d="M190.961 215.588C190.962 215.592 190.928 215.601 190.861 215.616C190.781 215.633 190.684 215.653 190.563 215.679C190.283 215.732 189.899 215.806 189.412 215.899C188.412 216.084 186.963 216.342 185.168 216.629C183.373 216.926 181.23 217.233 178.846 217.547C176.459 217.843 173.83 218.131 171.062 218.345C168.293 218.548 165.648 218.652 163.242 218.673C160.836 218.66 158.668 218.607 156.855 218.44C156.401 218.402 155.969 218.376 155.561 218.333C155.155 218.284 154.771 218.238 154.411 218.195C154.054 218.152 153.72 218.112 153.412 218.074C153.105 218.032 152.827 217.978 152.576 217.938C152.088 217.852 151.702 217.785 151.422 217.735C151.3 217.712 151.202 217.694 151.123 217.678C151.056 217.664 151.022 217.655 151.022 217.651C151.023 217.648 151.058 217.65 151.127 217.657C151.207 217.667 151.306 217.679 151.429 217.694C151.711 217.733 152.098 217.788 152.588 217.857C152.84 217.891 153.118 217.938 153.425 217.975C153.733 218.007 154.067 218.042 154.425 218.079C154.784 218.117 155.168 218.157 155.574 218.2C155.981 218.237 156.413 218.259 156.866 218.292C158.676 218.44 160.84 218.477 163.241 218.48C165.642 218.448 168.281 218.339 171.046 218.135C173.81 217.922 176.436 217.64 178.821 217.355C181.205 217.052 183.349 216.76 185.145 216.483C186.942 216.215 188.395 215.979 189.398 215.818C189.888 215.741 190.274 215.681 190.555 215.637C190.678 215.62 190.777 215.607 190.857 215.595C190.925 215.587 190.96 215.584 190.961 215.588Z" fill="white"/>
<path d="M178.509 194.308C178.512 194.311 178.479 194.342 178.414 194.399L178.122 194.649C177.852 194.874 177.472 195.191 176.987 195.595C175.988 196.423 174.561 197.605 172.802 199.062C169.272 201.993 164.421 206.073 159.131 210.658C153.84 215.246 149.112 219.469 145.709 222.547C144.017 224.081 142.644 225.325 141.683 226.197C141.215 226.619 140.847 226.95 140.586 227.186C140.466 227.291 140.37 227.375 140.297 227.439C140.231 227.496 140.196 227.523 140.193 227.52C140.191 227.517 140.221 227.485 140.282 227.424C140.352 227.355 140.443 227.267 140.557 227.155C140.812 226.912 141.171 226.572 141.628 226.137C142.56 225.254 143.92 223.99 145.609 222.437C148.987 219.33 153.701 215.088 158.994 210.499C164.285 205.914 169.153 201.85 172.708 198.948C174.485 197.495 175.93 196.329 176.936 195.532C177.431 195.14 177.819 194.834 178.096 194.616C178.222 194.519 178.323 194.441 178.4 194.382C178.47 194.33 178.507 194.305 178.509 194.308Z" fill="#191B1F"/>
<g opacity="0.300003">
<g opacity="0.300003">
<path opacity="0.300003" d="M158.591 211.11L144.725 223.342C156.667 217.931 166.868 209.696 173.502 198.387L158.591 211.11Z" fill="#191B1F"/>
</g>
</g>
<path d="M186.036 121.184C187.028 119.007 188.037 116.762 188.179 114.364C188.322 111.965 187.397 109.342 185.348 108.205C183.455 107.155 181.091 107.574 179.074 106.805C176.586 105.857 175.059 103.292 174.002 100.783C172.945 98.2733 174.512 97.402 172.674 95.4309C170.236 92.8162 168.621 92.4109 165.425 93.9038C163.188 92.2417 155.357 89.1464 153.08 89.0251C149.704 88.8455 145.851 89.0279 143.438 91.3966C141.565 93.2343 140.35 95.5977 138.072 96.9005C134.94 98.6931 131.036 97.0209 127.427 97.0721C126.692 97.0821 125.831 97.2505 125.512 97.914C125.237 98.488 125.5 99.1628 125.762 99.7424C126.647 101.702 127.532 103.662 128.417 105.621C126.889 106.288 125.053 106.202 123.595 105.395C123.67 109.195 125.133 112.953 127.646 115.805C127.016 115.337 126.042 115.783 125.708 116.493C125.373 117.202 125.501 118.036 125.688 118.798C126.839 123.469 130.091 127.58 134.372 129.777C138.653 131.972 143.889 132.215 148.355 130.424L168.194 132.369C168.709 133.931 170.006 135.192 171.549 135.629C173.812 134.032 174.188 133.115 174.188 133.115C175.535 134.165 174.471 133.628 175.535 134.165C177.972 135.396 181.648 134.083 182.265 131.351C182.523 130.208 182.868 129.114 183.655 128.351C184.461 127.57 185.591 127.287 186.594 126.809C188.176 126.057 189.507 124.754 190.318 123.164C188.708 123.142 187.121 122.408 186.036 121.184Z" fill="#FF7A7A"/>
<path d="M155.785 92.2414L154.786 92.2917C144.74 92.7985 136.754 100.93 136.452 110.985C136.17 120.347 135.979 130.698 136.293 135.698C136.943 146.044 147.379 147.131 147.379 147.131C147.385 147.239 147.345 148.792 147.288 150.916C147.106 157.748 152.595 163.388 159.43 163.388C166.066 163.388 171.474 158.061 171.574 151.425L172.165 112.346C172.55 101.55 166.588 92.3272 155.785 92.2414Z" fill="#FFBF9D"/>
<path d="M147.38 147.132C147.38 147.132 153.925 147.186 160.658 142.467C160.658 142.467 157.751 150.195 147.374 149.783L147.38 147.132Z" fill="#FF9A6C"/>
<path d="M154.012 115.614C154.213 115.828 155.427 114.894 157.158 114.887C158.887 114.854 160.162 115.757 160.349 115.539C160.441 115.442 160.236 115.055 159.681 114.647C159.133 114.239 158.203 113.847 157.125 113.859C156.046 113.873 155.141 114.286 154.622 114.706C154.092 115.128 153.914 115.519 154.012 115.614Z" fill="#191B1F"/>
<path d="M155.558 118.84C155.569 119.58 156.205 120.181 156.978 120.183C157.749 120.186 158.366 119.59 158.355 118.85C158.344 118.11 157.708 117.509 156.937 117.506C156.164 117.503 155.547 118.101 155.558 118.84Z" fill="#191B1F"/>
<path d="M149.408 127.551C149.411 127.46 148.414 127.339 146.801 127.215C146.393 127.194 146.004 127.133 145.922 126.859C145.811 126.57 145.959 126.124 146.132 125.641C146.464 124.639 146.812 123.588 147.177 122.487C148.624 117.999 149.649 114.316 149.467 114.259C149.286 114.203 147.967 117.795 146.521 122.283C146.174 123.39 145.842 124.445 145.527 125.453C145.396 125.923 145.158 126.46 145.396 127.059C145.521 127.356 145.83 127.562 146.094 127.619C146.359 127.685 146.588 127.678 146.789 127.68C148.406 127.685 149.407 127.642 149.408 127.551Z" fill="#191B1F"/>
<path d="M154.412 108.819C154.571 109.207 155.962 108.949 157.619 109.071C159.278 109.159 160.631 109.591 160.831 109.226C160.92 109.051 160.67 108.692 160.114 108.337C159.563 107.983 158.695 107.663 157.701 107.599C156.707 107.537 155.811 107.745 155.224 108.028C154.632 108.31 154.343 108.635 154.412 108.819Z" fill="#191B1F"/>
<path d="M138.391 111.963C138.565 112.28 139.923 111.963 141.56 111.949C143.198 111.905 144.551 112.175 144.731 111.852C144.81 111.698 144.547 111.412 143.982 111.15C143.422 110.889 142.553 110.68 141.571 110.696C140.589 110.714 139.716 110.954 139.152 111.234C138.582 111.515 138.314 111.812 138.391 111.963Z" fill="#191B1F"/>
<path d="M181.382 108.8C179.963 106.269 179.685 103.281 178.941 100.475C178.198 97.6701 176.71 94.7476 173.999 93.7119L173.937 93.7373C171.505 92.6956 168.48 92.613 166.427 94.2714C166.01 90.5791 162.849 87.5917 159.277 86.5677C155.705 85.5445 149.93 85.9768 146.452 87.2868C143.764 88.2987 141.139 90.4377 137.937 93.5947C136.587 94.9248 135.339 96.3609 134.224 97.8929L130.883 107.471C130.54 107.71 130.238 108.003 129.984 108.334C128.704 110 130.977 112.177 132.584 110.823C132.593 110.815 132.603 110.807 132.612 110.799C132.922 111.353 133.151 111.913 133.393 112.471L133.393 112.485L133.445 112.59C133.598 112.938 133.756 113.286 133.948 113.631L133.951 113.608L136.124 124.324C136.342 121.42 136.358 111.301 136.576 108.397C141.068 108.305 145.168 106.585 148.252 103.319C149.88 101.596 151.178 99.4204 153.325 98.4174C156.095 97.1239 159.336 98.1833 162.2 99.2508L162.08 99.138C163.567 99.866 164.91 100.883 166.015 102.115C165.237 107.824 165.702 113.701 167.377 119.214C167.629 120.045 168.33 121.76 169.132 122.091C170.709 122.741 171.174 121.132 172.15 120.293C172.869 119.676 173.917 119.617 175.059 119.646C175.77 117.895 176.529 114.934 177.169 112.34C178.122 112.653 179.144 112.755 180.137 112.605C179.849 111.869 179.561 111.132 179.272 110.395C179.663 110.655 180.068 110.921 180.531 110.999C180.994 111.078 181.532 110.917 181.75 110.501C182.031 109.964 181.679 109.33 181.382 108.8Z" fill="#FF7A7A"/>
<path d="M163.15 95.3841C163.129 95.4098 163.577 95.6668 164.165 96.3549C164.748 97.0397 165.392 98.2232 165.673 99.8204C165.818 100.614 165.9 101.501 165.878 102.451C165.861 103.403 165.762 104.42 165.665 105.492C165.571 106.564 165.469 107.696 165.511 108.878C165.532 109.467 165.59 110.068 165.704 110.67C165.821 111.261 165.961 111.904 166.394 112.42C166.738 112.84 167.325 113.036 167.841 112.943C168.359 112.863 168.824 112.598 169.168 112.231C169.851 111.47 170.039 110.49 170.223 109.627L170.006 109.648C170.342 110.435 170.689 111.214 171.214 111.84C171.73 112.471 172.455 112.897 173.199 112.98C173.57 113.022 173.946 112.971 174.268 112.817C174.597 112.666 174.84 112.402 175.008 112.121C175.169 111.834 175.257 111.518 175.248 111.21C175.237 110.903 175.124 110.61 174.934 110.4L174.823 110.495C175.598 111.42 176.429 111.926 177.004 112.209C177.294 112.351 177.528 112.437 177.685 112.492C177.845 112.543 177.929 112.565 177.93 112.559C177.933 112.552 177.853 112.517 177.7 112.454C177.547 112.388 177.321 112.29 177.04 112.139C176.482 111.838 175.679 111.319 174.936 110.402L174.824 110.497C175.163 110.873 175.169 111.52 174.858 112.033C174.702 112.286 174.479 112.522 174.19 112.649C173.902 112.783 173.56 112.827 173.221 112.785C172.538 112.701 171.862 112.303 171.379 111.703C170.884 111.104 170.549 110.347 170.217 109.558L170.075 109.224L169.999 109.58C169.814 110.442 169.617 111.382 168.995 112.068C168.686 112.397 168.26 112.636 167.806 112.705C167.351 112.782 166.877 112.622 166.576 112.261C166.198 111.815 166.053 111.206 165.94 110.624C165.827 110.037 165.77 109.449 165.747 108.869C165.702 107.707 165.799 106.582 165.887 105.511C165.977 104.439 166.07 103.418 166.079 102.454C166.092 101.491 165.999 100.592 165.841 99.7878C165.534 98.1696 164.852 96.9708 164.236 96.2936C163.615 95.6125 163.15 95.3841 163.15 95.3841Z" fill="#191B1F"/>
<path d="M130.967 104.716C130.965 104.719 130.992 104.743 131.048 104.788C131.117 104.841 131.2 104.904 131.302 104.982C131.413 105.069 131.554 105.171 131.733 105.273C131.91 105.379 132.11 105.508 132.354 105.618C133.303 106.095 134.832 106.582 136.758 106.512C138.665 106.448 140.968 105.825 143.044 104.351C145.141 102.913 147.002 100.768 148.539 98.2978C149.318 97.0639 149.96 95.7954 150.661 94.6264C151.359 93.4565 152.124 92.3782 153.04 91.5334C153.946 90.6843 154.99 90.0651 156.058 89.794C156.59 89.6486 157.124 89.6252 157.631 89.6486C158.14 89.6869 158.62 89.8009 159.062 89.9568C159.946 90.2758 160.653 90.7838 161.187 91.3018C161.722 91.8251 162.077 92.3721 162.318 92.8406C162.767 93.8006 162.779 94.4105 162.817 94.4016C162.821 94.4012 162.819 94.3641 162.811 94.2924C162.799 94.207 162.786 94.1027 162.769 93.9754C162.725 93.6974 162.615 93.2938 162.403 92.7999C162.171 92.3173 161.821 91.7502 161.282 91.2059C160.745 90.6669 160.028 90.1356 159.122 89.7964C158.668 89.6305 158.173 89.5076 157.646 89.4625C157.12 89.4327 156.56 89.4536 156.009 89.5998C154.9 89.8722 153.82 90.5058 152.889 91.3703C151.946 92.2303 151.164 93.3276 150.459 94.5047C149.749 95.6822 149.107 96.9471 148.334 98.1697C146.808 100.621 144.975 102.743 142.917 104.167C140.879 105.629 138.631 106.255 136.751 106.342C134.856 106.433 133.346 105.979 132.395 105.533C131.437 105.08 130.986 104.687 130.967 104.716Z" fill="#191B1F"/>
<path d="M130.129 100.155C130.12 100.17 130.25 100.263 130.494 100.422C130.735 100.584 131.105 100.787 131.578 101.003C132.05 101.224 132.637 101.434 133.302 101.613C133.971 101.78 134.721 101.91 135.517 101.958C136.313 101.996 137.073 101.949 137.756 101.856C138.438 101.751 139.043 101.606 139.536 101.438C140.03 101.274 140.42 101.113 140.677 100.978C140.937 100.847 141.076 100.768 141.069 100.752C141.05 100.711 140.472 100.992 139.487 101.274C138.995 101.419 138.396 101.544 137.726 101.635C137.054 101.715 136.31 101.755 135.53 101.716C134.751 101.669 134.015 101.549 133.356 101.397C132.7 101.233 132.119 101.044 131.646 100.847C130.696 100.458 130.153 100.117 130.129 100.155Z" fill="#191B1F"/>
<path d="M138.225 115.911C138.426 116.125 139.64 115.192 141.371 115.184C143.1 115.151 144.375 116.055 144.562 115.836C144.654 115.739 144.449 115.352 143.893 114.944C143.347 114.536 142.416 114.144 141.337 114.156C140.259 114.17 139.354 114.583 138.835 115.003C138.305 115.425 138.126 115.816 138.225 115.911Z" fill="#191B1F"/>
<path d="M140.669 119.111C140.68 119.851 141.316 120.452 142.089 120.454C142.86 120.457 143.478 119.861 143.466 119.121C143.455 118.381 142.82 117.78 142.048 117.777C141.275 117.774 140.658 118.372 140.669 119.111Z" fill="#191B1F"/>
<path d="M150.823 134.102C150.811 134.037 151.511 134.167 152.357 133.606C152.767 133.33 153.175 132.872 153.406 132.257C153.638 131.649 153.716 130.897 153.533 130.166C153.523 130.127 153.513 130.088 153.504 130.052L153.687 130.168C152.151 130.406 150.765 130.602 149.76 130.727C148.755 130.854 148.133 130.909 148.126 130.864C148.119 130.82 148.729 130.684 149.724 130.5C150.72 130.316 152.101 130.083 153.636 129.844L153.783 129.821L153.819 129.96C153.83 130 153.841 130.043 153.852 130.085C154.054 130.893 153.958 131.709 153.687 132.369C153.418 133.037 152.945 133.53 152.482 133.801C152.016 134.08 151.573 134.163 151.277 134.167C150.979 134.172 150.82 134.12 150.823 134.102Z" fill="#191B1F"/>
<path d="M151.104 134.113C151.154 134.116 151.211 134.118 151.276 134.117C151.498 134.114 151.945 134.063 152.456 133.759C152.97 133.456 153.402 132.943 153.64 132.351C153.93 131.642 153.988 130.842 153.803 130.098L153.746 129.878L153.644 129.893C152.16 130.125 150.771 130.357 149.733 130.55C148.996 130.687 148.603 130.771 148.395 130.823C148.609 130.809 149.009 130.771 149.753 130.678C150.752 130.553 152.068 130.366 153.476 130.15L153.423 129.942L153.826 130.198L153.694 130.218C153.663 130.223 153.631 130.228 153.6 130.233C153.752 130.906 153.7 131.628 153.452 132.275C153.24 132.84 152.861 133.328 152.384 133.648C151.86 133.996 151.386 134.084 151.104 134.113ZM151.241 134.218C151.019 134.218 150.827 134.186 150.786 134.14L150.771 134.123L150.772 134.107L150.769 134.089L150.784 134.065C150.807 134.036 150.846 134.033 150.95 134.025C151.18 134.008 151.719 133.969 152.328 133.564C152.594 133.385 153.082 132.976 153.358 132.24C153.599 131.608 153.65 130.904 153.501 130.248C152.088 130.465 150.768 130.652 149.766 130.778C148.093 130.987 148.086 130.937 148.076 130.872C148.066 130.808 148.058 130.758 149.715 130.451C150.754 130.258 152.144 130.025 153.628 129.794L153.82 129.764L153.901 130.073C154.091 130.838 154.032 131.661 153.733 132.389C153.487 133.001 153.04 133.532 152.507 133.845C151.976 134.162 151.509 134.215 151.278 134.218C151.265 134.218 151.253 134.218 151.241 134.218Z" fill="#191B1F"/>
<path d="M115.426 158.399L117.186 196.258L120.281 199.589L124.221 204.373C124.221 204.373 120.281 220.275 114.511 221.682C108.742 223.089 102.493 220.959 100.663 215.893C98.8336 210.826 99.767 201.963 100.33 196.283C100.893 190.604 103.563 159.574 103.563 159.574L110.29 156.809L115.426 158.399Z" fill="#FFBF9D"/>
<path d="M115.377 158.814C115.377 158.814 115.834 155.5 115.377 153.329C114.919 151.157 111.948 146.586 111.948 146.586C111.948 146.586 112.405 142.243 111.948 141.558C111.491 140.872 110.462 138.358 108.52 140.872C108.52 140.872 107.148 137.901 106.234 137.672C105.32 137.443 104.862 137.672 104.862 137.672L107.262 134.472C107.262 134.472 107.399 133.835 107.27 133.164C107.148 132.528 106.582 132.072 105.933 132.072C105.536 132.072 105.158 132.246 104.899 132.547L99.0338 139.386C99.0338 139.386 95.3769 146.015 95.4909 146.815C95.6053 147.615 97.6626 150.243 97.6626 150.243C97.6626 150.243 102.919 157.443 103.377 158.814C103.834 160.186 103.605 161.786 103.605 161.786L115.377 158.814Z" fill="#FFBF9D"/>
<path d="M100.721 145.32C100.695 145.314 100.764 144.815 100.923 144.016C101.088 143.22 101.341 142.109 101.867 140.967C102.394 139.824 103.146 138.929 103.799 138.427C104.124 138.172 104.412 138.002 104.62 137.904C104.827 137.805 104.948 137.766 104.953 137.778C104.972 137.813 104.503 138.014 103.894 138.541C103.282 139.059 102.572 139.94 102.057 141.056C101.542 142.172 101.268 143.264 101.068 144.048C100.872 144.836 100.751 145.326 100.721 145.32Z" fill="#FF9A6C"/>
<path d="M105.895 145.542C105.869 145.536 105.903 145.243 106.028 144.782C106.153 144.322 106.38 143.699 106.723 143.056C107.067 142.412 107.459 141.877 107.772 141.518C108.085 141.158 108.31 140.966 108.329 140.985C108.378 141.028 107.578 141.888 106.908 143.154C106.228 144.415 105.958 145.559 105.895 145.542Z" fill="#FF9A6C"/>
<path d="M111.774 146.392C111.723 146.419 111.662 146.404 111.638 146.357C111.614 146.311 111.635 146.252 111.687 146.225C111.738 146.198 111.799 146.214 111.823 146.26C111.848 146.306 111.826 146.365 111.774 146.392Z" fill="#FF9A6C"/>
<path d="M111.712 148.239C111.654 148.231 111.691 147.543 111.793 146.701C111.84 146.314 111.892 145.962 111.941 145.699L112.082 145.756C111.874 146.005 111.731 146.15 111.706 146.131C111.681 146.112 111.778 145.933 111.956 145.662L112.115 145.418L112.097 145.719C112.081 145.985 112.048 146.339 112.001 146.726C111.899 147.568 111.77 148.246 111.712 148.239Z" fill="#FF9A6C"/>
<path d="M115.953 170.834C115.957 170.834 115.963 170.867 115.971 170.93C115.98 171.006 115.99 171.098 116.003 171.212C116.028 171.477 116.062 171.84 116.105 172.298C116.177 173.241 116.269 174.608 116.361 176.298C116.548 179.678 116.751 184.349 116.944 189.509C117.137 194.672 117.284 199.344 117.378 202.728C117.419 204.406 117.452 205.77 117.476 206.735C117.482 207.194 117.488 207.558 117.491 207.824C117.49 207.938 117.49 208.031 117.49 208.108C117.488 208.172 117.486 208.205 117.482 208.205C117.478 208.205 117.473 208.172 117.468 208.108C117.463 208.033 117.457 207.939 117.449 207.826C117.436 207.559 117.417 207.196 117.394 206.737C117.355 205.773 117.299 204.41 117.23 202.733C117.102 199.335 116.927 194.671 116.734 189.517C116.531 184.366 116.347 179.703 116.213 176.306C116.134 174.63 116.069 173.267 116.024 172.303C115.997 171.844 115.977 171.481 115.961 171.215C115.957 171.101 115.953 171.009 115.95 170.932C115.948 170.868 115.95 170.835 115.953 170.834Z" fill="#FF9A6C"/>
</g>
</svg>
