<svg width="149" height="25" viewBox="0 0 149 25" fill="none" xmlns="http://www.w3.org/2000/svg">
    <path
        d="M43.6933 24.1758L23.8043 0.823898H32.1436C43.7481 0.823898 53.365 9.38178 55.092 20.5636C55.3846 22.4597 53.9408 24.1758 52.0326 24.1758H43.6933"
        fill="#E6BB00" />
    <path
        d="M43.6938 24.1758H52.4396C54.1297 23.1018 53.5361 20.4882 51.5501 20.2577C53.0223 18.8977 51.9745 16.4326 49.9792 16.5625C51.186 14.96 49.7172 12.7226 47.7774 13.2086C48.6804 11.415 46.8379 9.47743 45.0153 10.3039C45.5424 8.52161 43.7366 7.04164 42.1599 7.73167L41.7095 7.08753C41.5783 6.64219 41.306 6.27219 40.956 6.00969V6.00959H40.9556C40.2404 5.47325 39.2029 5.38404 38.3969 6.00959L43.6938 24.1758Z"
        fill="#F9545B" />
    <path
        d="M46.753 20.5636C45.0264 9.38191 35.4095 0.823898 23.8047 0.823898C12.2 0.823898 2.58322 9.38191 0.856386 20.5636C0.563495 22.4597 2.00748 24.1758 3.91573 24.1758H43.6936C45.6018 24.1758 47.0459 22.4598 46.753 20.5636"
        fill="#FEDD00" />
    <path
        d="M5.22752 20.5636C6.84477 10.0921 15.3816 1.92191 25.9902 0.926364C25.2637 0.858145 24.5343 0.823898 23.8046 0.823898C12.1999 0.823898 2.58309 9.38191 0.856386 20.5636C0.563495 22.4597 2.00748 24.1758 3.91573 24.1758H8.28703C6.37862 24.1758 4.93465 22.4597 5.22752 20.5636Z"
        fill="#FECE00" />
    <path
        d="M16.9409 13.8731V12.475C16.9389 12.0213 16.5726 11.6546 16.1214 11.6546C15.6701 11.6546 15.3037 12.0213 15.3017 12.475V13.8731C15.3037 14.3268 15.6701 14.6936 16.1214 14.6936C16.5726 14.6936 16.9389 14.3268 16.9409 13.8731ZM32.3059 13.8731V12.475C32.304 12.0213 31.9376 11.6546 31.4864 11.6546C31.0352 11.6546 30.6689 12.0213 30.6669 12.475V13.8731C30.6689 14.3268 31.0352 14.6936 31.4864 14.6936C31.9376 14.6936 32.304 14.3268 32.3059 13.8731ZM23.8038 15.7305C24.9483 15.7305 26.0225 15.2499 26.7507 14.4124C26.9449 14.191 27.0066 13.882 26.9121 13.6022C26.8178 13.3227 26.5818 13.1153 26.2935 13.0586C26.0054 13.0017 25.709 13.1045 25.5166 13.3276C25.0998 13.8072 24.4755 14.0822 23.8038 14.0822C23.1324 14.0822 22.5082 13.8072 22.0912 13.3276C21.7928 12.9874 21.2769 12.9537 20.9371 13.2523C20.5974 13.5509 20.5616 14.0694 20.8571 14.4122C21.5854 15.2499 22.6593 15.7305 23.8038 15.7305"
        fill="black" />
    <path
        d="M3.91516 25H52.4387C53.3717 25 54.4195 24.3097 55.0018 23.6265C55.7509 22.7473 56.0787 21.5848 55.9016 20.4375C55.0309 14.7991 52.1742 9.6281 47.8577 5.87742C43.4959 2.08742 37.915 0.000122152 32.1431 0.000122152H23.804C17.308 0.000122152 11.2207 2.5654 6.66342 7.22307C6.34607 7.54762 6.35035 8.0692 6.67294 8.38841C6.99564 8.70759 7.51454 8.70331 7.8319 8.37889C12.0786 4.03855 17.7509 1.64824 23.8038 1.64824C28.9302 1.64796 33.9017 3.41581 37.888 6.6568C41.4003 9.51344 44.0128 13.4317 45.2942 17.7875C45.7014 19.172 46.504 21.2792 45.4175 22.5543C44.9862 23.0609 44.356 23.3523 43.6928 23.3519H3.91503C2.52309 23.3519 1.45309 22.0658 1.66529 20.6902C2.21495 17.1314 3.63484 13.7133 5.77137 10.8049C5.9005 10.6291 5.95497 10.409 5.92256 10.193C5.89033 9.97684 5.7739 9.78249 5.59918 9.65259C5.42428 9.52283 5.20527 9.4681 4.9905 9.5006C4.7755 9.53297 4.58214 9.65002 4.45304 9.82581C2.16009 12.9472 0.635963 16.6164 0.0459008 20.437C-0.318707 22.7974 1.53658 25 3.91516 25ZM40.2456 6.53653C40.3244 6.57492 40.398 6.62016 40.4652 6.67033C40.6279 6.79231 40.7556 6.94495 40.843 7.11886C40.8283 7.10389 40.4337 6.7142 40.247 6.538L40.2456 6.53653ZM46.8767 23.3519C46.8852 23.3397 46.8931 23.327 46.9017 23.3147C47.2223 22.8529 47.449 22.3013 47.5477 21.7466C47.6919 20.932 47.5268 20.1343 47.3654 19.336C46.5584 15.342 44.7629 11.6438 42.1593 8.55588C42.272 8.55588 42.3833 8.53249 42.4861 8.48725C43.0294 8.24954 43.5479 8.4541 43.8518 8.72471C44.0364 8.88886 44.442 9.34824 44.2289 10.0686C44.0323 10.7336 44.7221 11.3403 45.3514 11.0551C45.9693 10.7748 46.518 11.0202 46.8253 11.3431C47.1322 11.666 47.3514 12.2279 47.0455 12.8359C46.7348 13.4534 47.3117 14.1741 47.9748 14.0082C48.6328 13.8434 49.1288 14.1832 49.3734 14.5561C49.6186 14.9292 49.734 15.5213 49.3251 16.0648C48.9116 16.6141 49.3487 17.4296 50.0314 17.3848C50.7075 17.3408 51.1357 17.7642 51.3104 18.1752C51.4851 18.5861 51.494 19.1896 50.9949 19.6508C50.4852 20.122 50.7716 20.997 51.4553 21.0765C52.1287 21.1546 52.4743 21.6481 52.5733 22.0838C52.661 22.47 52.5931 22.9816 52.1777 23.3465C52.1294 23.3497 46.8767 23.3519 46.8767 23.3519V23.3519ZM32.5409 1.65173C37.7773 1.74509 42.8221 3.68016 46.7859 7.12434C50.8082 10.6199 53.4707 15.4377 54.2818 20.6902C54.3394 21.0614 54.3065 21.441 54.1866 21.7966C54.1811 21.7701 54.1773 21.7436 54.1715 21.7171C53.9872 20.9058 53.4978 20.2419 52.8288 19.8398C53.135 19.1193 53.1429 18.2929 52.8178 17.5276C52.4924 16.7621 51.8927 16.197 51.1631 15.9214C51.3361 15.1576 51.1977 14.3429 50.7418 13.6483C50.2855 12.9536 49.5953 12.5053 48.8284 12.3652C48.863 11.5824 48.5818 10.8058 48.0101 10.2041C47.4377 9.60242 46.6783 9.28523 45.8987 9.28523C45.8066 8.60444 45.476 7.9694 44.9383 7.49064C44.2474 6.87526 43.3544 6.62416 42.4926 6.77588L42.4498 6.71461C42.2597 6.17105 41.9144 5.70098 41.4448 5.34875C40.5522 4.67975 39.4201 4.56937 38.4627 5.01296C36.8169 3.73995 35.0138 2.68659 33.099 1.8794C32.9391 1.81211 32.779 1.74163 32.6163 1.68208C32.5911 1.67218 32.5661 1.66163 32.5409 1.65173"
        fill="black" />
    <path
        d="M75.8818 15.5177L76.362 15.9643C75.1912 17.1412 73.8786 17.7297 72.4239 17.7297C70.9832 17.7297 69.7416 17.2066 68.6992 16.1604C67.6586 15.1125 67.1387 13.8641 67.1387 12.4152C67.1387 10.9526 67.6562 9.70074 68.6917 8.65971C69.7268 7.62039 70.9712 7.10067 72.4239 7.10067C73.1754 7.10067 73.9088 7.25813 74.624 7.57303C75.3395 7.88967 75.9246 8.33276 76.3798 8.90224L75.8999 9.3307C74.8268 8.27762 73.6683 7.75108 72.4239 7.75108C71.1559 7.75108 70.0659 8.21221 69.1538 9.13461C68.2416 10.0568 67.7854 11.1505 67.7854 12.4152C67.7854 13.6903 68.2382 14.7864 69.1435 15.7035C70.0488 16.6207 71.1422 17.0793 72.4239 17.0793C73.8173 17.0793 74.9696 16.5587 75.8818 15.5177ZM84.271 7.02577V7.67632C82.991 7.67632 81.8949 8.13745 80.9827 9.05967C80.0706 9.98382 79.6143 11.0893 79.6143 12.3765V17.5439H78.9676V12.3765C78.9676 10.8278 79.5033 9.5493 80.5744 8.54091C81.6476 7.53091 82.8797 7.02577 84.271 7.02577ZM95.9153 7.2117H96.562V12.3971C96.562 13.8701 96.0383 15.1271 94.9912 16.1681C93.9437 17.2092 92.6997 17.7297 91.2586 17.7297C89.7919 17.7297 88.5383 17.2092 87.4976 16.1681C86.4557 15.1271 85.9343 13.8701 85.9343 12.3971V7.2117H86.6019V12.3971C86.6019 13.6843 87.0572 14.7864 87.9676 15.7035C88.8798 16.6207 89.9769 17.0793 91.2586 17.0793C92.5147 17.0793 93.605 16.6207 94.5291 15.7035C95.4533 14.7864 95.9153 13.6843 95.9153 12.3971V7.2117ZM110.221 12.3585V17.5439H109.539V12.3585C109.539 11.0833 109.077 9.98382 108.152 9.05967C107.228 8.13745 106.131 7.67632 104.862 7.67632C103.605 7.67632 102.515 8.13745 101.591 9.05967C100.667 9.98382 100.205 11.0833 100.205 12.3585V17.5439H99.5194V12.3585C99.5194 10.8975 100.043 9.64306 101.09 8.59508C102.138 7.54895 103.395 7.02577 104.862 7.02577C106.328 7.02577 107.588 7.54895 108.643 8.59508C109.695 9.64306 110.221 10.8975 110.221 12.3585ZM121.552 15.5177L122.033 15.9643C120.862 17.1412 119.549 17.7297 118.095 17.7297C116.654 17.7297 115.413 17.2066 114.372 16.1604C113.33 15.1125 112.809 13.8641 112.809 12.4152C112.809 10.9526 113.327 9.70074 114.362 8.65971C115.397 7.62039 116.642 7.10067 118.095 7.10067C118.848 7.10067 119.581 7.25813 120.295 7.57303C121.01 7.88967 121.595 8.33276 122.05 8.90224L121.571 9.3307C120.499 8.27762 119.341 7.75108 118.095 7.75108C116.826 7.75108 115.737 8.21221 114.824 9.13461C113.912 10.0568 113.456 11.1505 113.456 12.4152C113.456 13.6903 113.909 14.7864 114.814 15.7035C115.721 16.6207 116.814 17.0793 118.095 17.0793C119.488 17.0793 120.64 16.5587 121.552 15.5177V15.5177ZM135.451 12.3765V17.5439H134.804V12.3765C134.804 11.1014 134.341 10.0019 133.418 9.07776C132.493 8.1555 131.397 7.69437 130.129 7.69437C128.859 7.69437 127.766 8.1555 126.848 9.07776C125.929 10.0019 125.47 11.1014 125.47 12.3765V17.5439H124.823V3.12313H125.47V9.9244C125.988 9.03307 126.641 8.33009 127.428 7.81557C128.217 7.30108 129.118 7.04382 130.129 7.04382C131.582 7.04382 132.832 7.57036 133.879 8.62358C134.927 9.67666 135.451 10.9276 135.451 12.3765V12.3765ZM149 7.2117V16.5218C149 18.0704 148.461 19.3498 147.382 20.36C146.304 21.37 145.075 21.875 143.694 21.875C142.203 21.875 140.953 21.3484 139.943 20.2954L140.405 19.8488C141.255 20.766 142.351 21.2246 143.694 21.2246C144.975 21.2246 146.072 20.7625 146.984 19.8385C147.896 18.9163 148.353 17.8106 148.353 16.5218V14.4414C148.069 15.2948 147.464 15.9943 146.54 16.5399C145.616 17.0853 144.661 17.3581 143.675 17.3581C142.234 17.3581 140.996 16.8746 139.961 15.9075C138.926 14.9421 138.408 13.741 138.408 12.3043V7.2117H139.037V12.1183C139.037 13.3694 139.495 14.4466 140.413 15.3499C141.332 16.2551 142.419 16.7077 143.675 16.7077C144.957 16.7077 146.057 16.2491 146.974 15.3319C147.893 14.4147 148.353 13.3186 148.353 12.0435V7.2117H149"
        fill="var(--logo-text-color)" />
</svg>